<svg xmlns="http://www.w3.org/2000/svg" version="1.1" xmlns:xlink="http://www.w3.org/1999/xlink" xmlns:svgjs="http://svgjs.com/svgjs" width="1440" height="560" preserveAspectRatio="none" viewBox="0 0 1440 560"><g mask="url(&quot;#SvgjsMask1053&quot;)" fill="none"><rect width="1440" height="560" x="0" y="0" fill="#0e2a47"></rect><path d="M0,372.007C78.86,382.958,160.211,394.124,233.874,363.915C314.952,330.666,403.04,279.642,429.186,196.003C455.25,112.629,390.049,31.043,363.997,-52.335C342.48,-121.2,336.644,-196.239,289.549,-250.896C242.39,-305.626,171.605,-328.698,103.975,-354.106C31.276,-381.418,-41.724,-414.52,-118.705,-404.272C-202.065,-393.175,-276.054,-349.104,-340.391,-294.95C-413.24,-233.632,-506.414,-168.636,-511.606,-73.558C-516.826,22.028,-427.038,93.545,-365.618,166.972C-317.904,224.013,-260.414,267.908,-195.551,304.283C-134.14,338.722,-69.739,362.323,0,372.007" fill="#0b2138"></path><path d="M1440 1087.262C1559.348 1108.604 1683.472 1159.594 1795.422 1113.048 1912.4279999999999 1064.4 1995.121 952.76 2044.338 835.992 2092.8 721.015 2092.245 592.011 2066.494 469.924 2041.842 353.05 1976.902 252.733 1901.733 159.906 1824.3519999999999 64.34699999999998 1746.387-48.25699999999995 1626.127-73.88900000000001 1507.277-99.22000000000003 1402.329 1.1860000000000355 1283.853 28.212999999999965 1154.692 57.67700000000002 998.514 3.586999999999989 899.698 91.82600000000002 800.704 180.223 804.349 334.72 792.564 466.913 781.313 593.114 761.549 732.633 833.256 837.091 903.104 938.8399999999999 1043.752 951.989 1157.85 999.034 1250.834 1037.373 1340.993 1069.557 1440 1087.262" fill="#113356"></path></g><defs><mask id="SvgjsMask1053"><rect width="1440" height="560" fill="#ffffff"></rect></mask></defs></svg>